<?xml version="1.0" encoding="UTF-8" standalone="no"?>
<!DOCTYPE svg PUBLIC "-//W3C//DTD SVG 1.1//EN"
 "http://www.w3.org/Graphics/SVG/1.1/DTD/svg11.dtd">
<!-- Generated by graphviz version 2.43.0 (0)
 -->
<!-- Title: G Pages: 1 -->
<svg width="374pt" height="260pt"
 viewBox="0.00 0.00 373.50 260.00" xmlns="http://www.w3.org/2000/svg" xmlns:xlink="http://www.w3.org/1999/xlink">
<g id="graph0" class="graph" transform="scale(1 1) rotate(0) translate(4 256)">
<title>G</title>
<polygon fill="white" stroke="transparent" points="-4,4 -4,-256 369.5,-256 369.5,4 -4,4"/>
<!-- liga -->
<g id="node1" class="node">
<title>liga</title>
<polygon fill="#fc8d59" stroke="#fc8d59" points="93,-252 39,-252 39,-216 93,-216 93,-252"/>
<text text-anchor="middle" x="66" y="-230.2" font-family="Times,serif" font-size="16.00">liga</text>
</g>
<!-- ligavision -->
<g id="node4" class="node">
<title>ligavision</title>
<polygon fill="#e6f598" stroke="#e6f598" points="229.5,-180 134.5,-180 134.5,-144 229.5,-144 229.5,-180"/>
<text text-anchor="middle" x="182" y="-158.2" font-family="Times,serif" font-size="16.00">ligavision</text>
</g>
<!-- liga&#45;&gt;ligavision -->
<g id="edge2" class="edge">
<title>liga&#45;&gt;ligavision</title>
<path fill="none" stroke="black" d="M93.2,-216.59C108.57,-207.31 128,-195.59 144.76,-185.47"/>
<polygon fill="black" stroke="black" points="147.01,-188.2 153.76,-180.04 143.39,-182.21 147.01,-188.2"/>
</g>
<!-- liga_pytorch -->
<g id="node5" class="node">
<title>liga_pytorch</title>
<polygon fill="#fee08b" stroke="#fee08b" points="116,-180 0,-180 0,-144 116,-144 116,-180"/>
<text text-anchor="middle" x="58" y="-158.2" font-family="Times,serif" font-size="16.00">liga&#45;pytorch</text>
</g>
<!-- liga&#45;&gt;liga_pytorch -->
<g id="edge3" class="edge">
<title>liga&#45;&gt;liga_pytorch</title>
<path fill="none" stroke="black" d="M64.02,-215.7C63.14,-207.98 62.08,-198.71 61.1,-190.11"/>
<polygon fill="black" stroke="black" points="64.57,-189.64 59.95,-180.1 57.61,-190.44 64.57,-189.64"/>
</g>
<!-- liga_mlflow -->
<g id="node2" class="node">
<title>liga_mlflow</title>
<polygon fill="#fc8d59" stroke="#fc8d59" points="365.5,-252 258.5,-252 258.5,-216 365.5,-216 365.5,-252"/>
<text text-anchor="middle" x="312" y="-230.2" font-family="Times,serif" font-size="16.00">liga&#45;mlflow</text>
</g>
<!-- app -->
<g id="node7" class="node">
<title>app</title>
<polygon fill="#99d594" stroke="#99d594" points="356.5,-36 149.5,-36 149.5,0 356.5,0 356.5,-36"/>
<text text-anchor="middle" x="253" y="-14.2" font-family="Times,serif" font-size="16.00">Liga Vision Application</text>
</g>
<!-- liga_mlflow&#45;&gt;app -->
<g id="edge6" class="edge">
<title>liga_mlflow&#45;&gt;app</title>
<path fill="none" stroke="black" d="M307.27,-215.85C297.04,-178.75 272.8,-90.81 260.47,-46.1"/>
<polygon fill="black" stroke="black" points="263.78,-44.94 257.75,-36.23 257.03,-46.8 263.78,-44.94"/>
</g>
<!-- dsl -->
<g id="node3" class="node">
<title>dsl</title>
<polygon fill="#fc8d59" stroke="#fc8d59" points="240.5,-252 115.5,-252 115.5,-216 240.5,-216 240.5,-252"/>
<text text-anchor="middle" x="178" y="-230.2" font-family="Times,serif" font-size="16.00">ligavision&#45;dsl</text>
</g>
<!-- dsl&#45;&gt;ligavision -->
<g id="edge1" class="edge">
<title>dsl&#45;&gt;ligavision</title>
<path fill="none" stroke="black" d="M178.99,-215.7C179.43,-207.98 179.96,-198.71 180.45,-190.11"/>
<polygon fill="black" stroke="black" points="183.95,-190.29 181.02,-180.1 176.96,-189.89 183.95,-190.29"/>
</g>
<!-- liga_tv -->
<g id="node6" class="node">
<title>liga_tv</title>
<polygon fill="#ffffbf" stroke="#ffffbf" points="256,-108 188,-108 188,-72 256,-72 256,-108"/>
<text text-anchor="middle" x="222" y="-86.2" font-family="Times,serif" font-size="16.00">liga&#45;tv</text>
</g>
<!-- ligavision&#45;&gt;liga_tv -->
<g id="edge4" class="edge">
<title>ligavision&#45;&gt;liga_tv</title>
<path fill="none" stroke="black" d="M191.89,-143.7C196.49,-135.64 202.06,-125.89 207.15,-116.98"/>
<polygon fill="black" stroke="black" points="210.3,-118.52 212.23,-108.1 204.23,-115.05 210.3,-118.52"/>
</g>
<!-- liga_tv&#45;&gt;app -->
<g id="edge5" class="edge">
<title>liga_tv&#45;&gt;app</title>
<path fill="none" stroke="black" d="M229.66,-71.7C233.19,-63.73 237.46,-54.1 241.37,-45.26"/>
<polygon fill="black" stroke="black" points="244.58,-46.67 245.43,-36.1 238.18,-43.83 244.58,-46.67"/>
</g>
</g>
</svg>
