<?xml version="1.0" encoding="UTF-8" standalone="no"?>
<!DOCTYPE svg PUBLIC "-//W3C//DTD SVG 1.1//EN"
 "http://www.w3.org/Graphics/SVG/1.1/DTD/svg11.dtd">
<!-- Generated by graphviz version 2.43.0 (0)
 -->
<!-- Title: G Pages: 1 -->
<svg width="331pt" height="260pt"
 viewBox="0.00 0.00 330.50 260.00" xmlns="http://www.w3.org/2000/svg" xmlns:xlink="http://www.w3.org/1999/xlink">
<g id="graph0" class="graph" transform="scale(1 1) rotate(0) translate(4 256)">
<title>G</title>
<polygon fill="white" stroke="transparent" points="-4,4 -4,-256 326.5,-256 326.5,4 -4,4"/>
<!-- liga -->
<g id="node1" class="node">
<title>liga</title>
<polygon fill="#fc8d59" stroke="#fc8d59" points="54,-252 0,-252 0,-216 54,-216 54,-252"/>
<text text-anchor="middle" x="27" y="-230.2" font-family="Times,serif" font-size="16.00">liga</text>
</g>
<!-- ligavision -->
<g id="node4" class="node">
<title>ligavision</title>
<polygon fill="#e6f598" stroke="#e6f598" points="182.5,-180 87.5,-180 87.5,-144 182.5,-144 182.5,-180"/>
<text text-anchor="middle" x="135" y="-158.2" font-family="Times,serif" font-size="16.00">ligavision</text>
</g>
<!-- liga&#45;&gt;ligavision -->
<g id="edge2" class="edge">
<title>liga&#45;&gt;ligavision</title>
<path fill="none" stroke="black" d="M53.42,-215.88C67.41,-206.81 84.78,-195.55 99.89,-185.76"/>
<polygon fill="black" stroke="black" points="101.99,-188.57 108.48,-180.19 98.18,-182.69 101.99,-188.57"/>
</g>
<!-- liga_mlflow -->
<g id="node2" class="node">
<title>liga_mlflow</title>
<polygon fill="#fc8d59" stroke="#fc8d59" points="322.5,-252 215.5,-252 215.5,-216 322.5,-216 322.5,-252"/>
<text text-anchor="middle" x="269" y="-230.2" font-family="Times,serif" font-size="16.00">liga&#45;mlflow</text>
</g>
<!-- app -->
<g id="node6" class="node">
<title>app</title>
<polygon fill="#99d594" stroke="#99d594" points="305.5,-36 98.5,-36 98.5,0 305.5,0 305.5,-36"/>
<text text-anchor="middle" x="202" y="-14.2" font-family="Times,serif" font-size="16.00">Liga Vision Application</text>
</g>
<!-- liga_mlflow&#45;&gt;app -->
<g id="edge5" class="edge">
<title>liga_mlflow&#45;&gt;app</title>
<path fill="none" stroke="black" d="M265.38,-215.8C258.91,-186.04 244.3,-123.22 226,-72 222.87,-63.25 218.9,-53.94 215.08,-45.61"/>
<polygon fill="black" stroke="black" points="218.16,-43.93 210.74,-36.37 211.82,-46.91 218.16,-43.93"/>
</g>
<!-- dsl -->
<g id="node3" class="node">
<title>dsl</title>
<polygon fill="#fc8d59" stroke="#fc8d59" points="197.5,-252 72.5,-252 72.5,-216 197.5,-216 197.5,-252"/>
<text text-anchor="middle" x="135" y="-230.2" font-family="Times,serif" font-size="16.00">ligavision&#45;dsl</text>
</g>
<!-- dsl&#45;&gt;ligavision -->
<g id="edge1" class="edge">
<title>dsl&#45;&gt;ligavision</title>
<path fill="none" stroke="black" d="M135,-215.7C135,-207.98 135,-198.71 135,-190.11"/>
<polygon fill="black" stroke="black" points="138.5,-190.1 135,-180.1 131.5,-190.1 138.5,-190.1"/>
</g>
<!-- liga_pytorch -->
<g id="node5" class="node">
<title>liga_pytorch</title>
<polygon fill="#fee08b" stroke="#fee08b" points="217,-108 101,-108 101,-72 217,-72 217,-108"/>
<text text-anchor="middle" x="159" y="-86.2" font-family="Times,serif" font-size="16.00">liga&#45;pytorch</text>
</g>
<!-- ligavision&#45;&gt;liga_pytorch -->
<g id="edge3" class="edge">
<title>ligavision&#45;&gt;liga_pytorch</title>
<path fill="none" stroke="black" d="M140.93,-143.7C143.61,-135.9 146.83,-126.51 149.8,-117.83"/>
<polygon fill="black" stroke="black" points="153.2,-118.7 153.14,-108.1 146.58,-116.43 153.2,-118.7"/>
</g>
<!-- liga_pytorch&#45;&gt;app -->
<g id="edge4" class="edge">
<title>liga_pytorch&#45;&gt;app</title>
<path fill="none" stroke="black" d="M169.63,-71.7C174.63,-63.56 180.69,-53.69 186.21,-44.7"/>
<polygon fill="black" stroke="black" points="189.24,-46.46 191.49,-36.1 183.28,-42.79 189.24,-46.46"/>
</g>
</g>
</svg>
